<svg width="228" height="164" viewBox="0 0 228 164" fill="none" xmlns="http://www.w3.org/2000/svg">
<rect width="29.2968" height="100.508" rx="4" transform="matrix(0.971112 -0.23931 0.279771 0.960261 18.6582 20.125)" fill="#FFAB00"/>
<path d="M44.6797 107.818L48.1691 106.945" stroke="#C28200" stroke-width="2" stroke-miterlimit="16" stroke-linecap="round"/>
<path d="M42.75 101.09L50.5108 99.1465" stroke="#C28200" stroke-width="2" stroke-miterlimit="16" stroke-linecap="round"/>
<path d="M40.8203 94.3594L44.3097 93.4856" stroke="#C28200" stroke-width="2" stroke-miterlimit="16" stroke-linecap="round"/>
<path d="M38.8906 87.6309L46.6514 85.6875" stroke="#C28200" stroke-width="2" stroke-miterlimit="16" stroke-linecap="round"/>
<path d="M36.9609 80.9023L40.4503 80.0286" stroke="#C28200" stroke-width="2" stroke-miterlimit="16" stroke-linecap="round"/>
<path d="M35.0312 74.1719L42.792 72.2285" stroke="#C28200" stroke-width="2" stroke-miterlimit="16" stroke-linecap="round"/>
<path d="M33.1035 67.4434L36.5929 66.5696" stroke="#C28200" stroke-width="2" stroke-miterlimit="16" stroke-linecap="round"/>
<path d="M31.1738 60.7129L38.9346 58.7696" stroke="#C28200" stroke-width="2" stroke-miterlimit="16" stroke-linecap="round"/>
<path d="M29.2441 53.9844L32.7335 53.1106" stroke="#C28200" stroke-width="2" stroke-miterlimit="16" stroke-linecap="round"/>
<path d="M27.3145 47.2559L35.0753 45.3125" stroke="#C28200" stroke-width="2" stroke-miterlimit="16" stroke-linecap="round"/>
<path d="M25.3848 40.5254L28.8742 39.6516" stroke="#C28200" stroke-width="2" stroke-miterlimit="16" stroke-linecap="round"/>
<path d="M23.4551 33.7969L31.2159 31.8535" stroke="#C28200" stroke-width="2" stroke-miterlimit="16" stroke-linecap="round"/>
<path d="M21.5254 27.0664L25.0148 26.1927" stroke="#C28200" stroke-width="2" stroke-miterlimit="16" stroke-linecap="round"/>
<rect width="126.74" height="108.294" rx="4" transform="matrix(0.993686 0.113871 -0.149584 0.988983 57.4414 8.16016)" fill="#6BDEEF"/>
<rect width="109.758" height="100.994" rx="4" transform="matrix(0.993686 0.113866 -0.14959 0.988982 64.8398 16.2637)" fill="white"/>
<circle cx="2" cy="2" r="2" transform="matrix(0.99279 0.120025 -0.141917 0.989899 65.0742 22.6953)" fill="#6BDEEF"/>
<circle cx="2" cy="2" r="2" transform="matrix(0.99279 0.120025 -0.141917 0.989899 63.3711 34.5742)" fill="#6BDEEF"/>
<circle cx="2" cy="2" r="2" transform="matrix(0.99279 0.120025 -0.141917 0.989899 61.668 46.4531)" fill="#6BDEEF"/>
<circle cx="2" cy="2" r="2" transform="matrix(0.99279 0.120025 -0.141917 0.989899 59.9648 58.332)" fill="#6BDEEF"/>
<circle cx="2" cy="2" r="2" transform="matrix(0.99279 0.120025 -0.141917 0.989899 58.2617 70.2109)" fill="#6BDEEF"/>
<circle cx="2" cy="2" r="2" transform="matrix(0.99279 0.120025 -0.141917 0.989899 56.5586 82.0898)" fill="#6BDEEF"/>
<circle cx="2" cy="2" r="2" transform="matrix(0.99279 0.120025 -0.141917 0.989899 54.8555 93.9688)" fill="#6BDEEF"/>
<circle cx="2" cy="2" r="2" transform="matrix(0.99279 0.120025 -0.141917 0.989899 53.1523 105.848)" fill="#6BDEEF"/>
<path d="M62.8184 28.6016L172.178 41.1414" stroke="#DBDBDB" stroke-width="2" stroke-miterlimit="16" stroke-linecap="square"/>
<path d="M61.0254 40.4688L170.385 53.0085" stroke="#DBDBDB" stroke-width="2" stroke-miterlimit="16" stroke-linecap="square"/>
<path d="M59.2305 52.3379L168.59 64.8777" stroke="#DBDBDB" stroke-width="2" stroke-miterlimit="16" stroke-linecap="square"/>
<path d="M57.4375 64.2051L166.797 76.7449" stroke="#DBDBDB" stroke-width="2" stroke-miterlimit="16" stroke-linecap="square"/>
<path d="M55.6426 76.0742L165.002 88.614" stroke="#DBDBDB" stroke-width="2" stroke-miterlimit="16" stroke-linecap="square"/>
<path d="M53.8496 87.9414L163.209 100.481" stroke="#DBDBDB" stroke-width="2" stroke-miterlimit="16" stroke-linecap="square"/>
<path d="M52.0547 99.8086L161.415 112.348" stroke="#DBDBDB" stroke-width="2" stroke-miterlimit="16" stroke-linecap="square"/>
<path d="M50.2617 111.678L159.622 124.218" stroke="#DBDBDB" stroke-width="2" stroke-miterlimit="16" stroke-linecap="square"/>
<path d="M65.6133 24.5254L60.6587 23.9311" stroke="#008392" stroke-width="2" stroke-miterlimit="16" stroke-linecap="round"/>
<path d="M63.8965 36.4023L58.9419 35.8081" stroke="#008392" stroke-width="2" stroke-miterlimit="16" stroke-linecap="round"/>
<path d="M62.1797 48.2793L57.2251 47.685" stroke="#008392" stroke-width="2" stroke-miterlimit="16" stroke-linecap="round"/>
<path d="M60.4648 60.1562L55.5102 59.562" stroke="#008392" stroke-width="2" stroke-miterlimit="16" stroke-linecap="round"/>
<path d="M58.748 72.0352L53.7934 71.4409" stroke="#008392" stroke-width="2" stroke-miterlimit="16" stroke-linecap="round"/>
<path d="M57.0312 83.9121L52.0766 83.3178" stroke="#008392" stroke-width="2" stroke-miterlimit="16" stroke-linecap="round"/>
<path d="M55.3145 95.7891L50.3598 95.1948" stroke="#008392" stroke-width="2" stroke-miterlimit="16" stroke-linecap="round"/>
<path d="M53.5996 107.666L48.645 107.072" stroke="#008392" stroke-width="2" stroke-miterlimit="16" stroke-linecap="round"/>
<path d="M163.623 46.6426L200.114 37.4401L196.774 42.8834L202.558 46.0261L166.067 55.2286L163.623 46.6426Z" fill="#FEC3CE"/>
<rect width="37.633" height="114.268" rx="4" transform="matrix(0.969641 0.244531 -0.273816 0.961782 160.762 1.74805)" fill="#A3A3F5"/>
<rect width="37.633" height="8.92719" transform="matrix(0.969641 0.244531 -0.273816 0.961782 152.205 31.7988)" fill="#FF8DA6"/>
<path d="M186.305 8.18945L193.373 9.97206C195.515 10.5123 196.761 12.6726 196.157 14.7973L167.059 117.004C166.454 119.129 164.227 120.413 162.085 119.873L155.016 118.09L186.305 8.18945Z" fill="#8888F2"/>
<rect width="11.2899" height="8.92719" transform="matrix(0.969641 0.244531 -0.273816 0.961782 177.748 38.2422)" fill="#F76E88"/>
<path d="M23.332 63.9883H129.11V163.544H31.332C26.9137 163.544 23.332 159.962 23.332 155.544V63.9883Z" fill="#FFDF99"/>
<path d="M23.3327 63.9883H129.11L106.444 85.3216H0.666016L23.3327 63.9883Z" fill="#FFEDC1"/>
<rect x="129.111" y="63.9883" width="75.5556" height="99.5556" fill="#FFCC66"/>
<path d="M204.665 63.9883H129.11L151.776 85.3216H227.332L204.665 63.9883Z" fill="#FFDF99"/>
</svg>
